<!-- icon666.com - MILLIONS OF FREE VECTOR ICONS --><svg fill="none" viewBox="0 0 120 120" xmlns="http://www.w3.org/2000/svg"><g fill="rgb(0,0,0)"><path d="m94 35c0-3.1417-.4996-6.1668-1.4237-9 4.5083 0 8.4237 3.3096 8.4237 8v19c0 4.4183-3.5817 8-8 8h-2c-.0154 0-.0308 0-.0462-.0001-.0079-.0001-.0158-.0001-.0236-.0002 1.9641-3.9101 3.0698-8.3258 3.0698-12.9997z" fill="rgb(0,0,0)" style="fill: rgb(42, 0, 77);"></path><path d="m65 10c10.2778 0 19.107 6.2021 22.9493 15.0678-4.3964-4.9493-10.8087-8.0678-17.9493-8.0678h-19c-7.1406 0-13.5529 3.1185-17.9493 8.0678 3.8423-8.8657 12.6715-15.0678 22.9493-15.0678z" fill="rgb(0,0,0)" style="fill: rgb(42, 0, 77);"></path><path d="m27 35c0-3.1417.4996-6.1668 1.4237-9-.4762 0-.9501.0028-1.4237.0619v-9.0619c0-1.1046-.8954-2-2-2s-2 .8954-2 2v10.7546c-1.8289 1.4662-3 3.719-3 6.2454v19c0 4.4183 3.5817 8 8 8 .6899 0 1.38.0056 2.0698-.0003-1.9641-3.9101-3.0698-8.3258-3.0698-12.9997z" fill="rgb(0,0,0)" style="fill: rgb(42, 0, 77);"></path><path d="m35.7554 68.7643c5.226 5.096 12.3687 8.2357 20.2446 8.2357h9c8.0883 0 15.4033-3.3113 20.6632-8.6522.4682.3154.8677.6278 1.2001.932 1.0726.9817 1.1367 1.568 1.1367 1.7202s-.0641.7385-1.1367 1.7202c-1.0751.9839-2.8525 2.0537-5.387 3.0348-5.0429 1.9521-12.2811 3.245-20.4763 3.245s-15.4334-1.2929-20.4763-3.245c-2.103-.814-5.6534-2.755-6.3842-4.2588-.532-1.0949.8383-2.1373 1.6159-2.7319z" fill="rgb(0,0,0)" style="fill: rgb(42, 0, 77);"></path><path d="m61 83c14.0659 0 25.9439-3.6264 29.7348-8.5956.3725.3256.7368.6602 1.0927 1.0036l-13.2093 11.8053c-1.0059-.7615-2.2593-1.2133-3.6182-1.2133h-28c-1.3671 0-2.6274.4572-3.6363 1.227l-13.8346-12.1576c.4423-.413.897-.8127 1.3636-1.1986 3.3239 5.2411 15.5426 9.1292 30.1073 9.1292z" fill="rgb(0,0,0)" style="fill: rgb(42, 0, 77);"></path><path d="m94.4729 78.3159c4.0854 5.1258 6.5271 11.6198 6.5271 18.6841v8c0 2.761-2.2386 5-5 5h-15c0-6 0-12 0-18 0-.4872-.0581-.9609-.1677-1.4144 4.4529-3.9996 13.6406-12.2697 13.6406-12.2697z" fill="rgb(0,0,0)" style="fill: rgb(42, 0, 77);"></path><path d="m41 110h-16c-2.7614 0-5-2.239-5-5v-8c0-7.2205 2.5509-13.8452 6.8006-19.0221l14.3635 12.6225c-.1073.449-.1641.9177-.1641 1.3996 0 6-.0001 12 0 18z" fill="rgb(0,0,0)" style="fill: rgb(42, 0, 77);"></path><path d="m88.6609 56.0934c-.4546 1.3292-1.0179 2.6079-1.6796 3.8255-1.1742 2.1609-2.6577 4.1294-4.3912 5.8459-.2234.2212-.4509.4382-.6825.6509-4.4507 4.0884-10.3877 6.5843-16.9076 6.5843h-9c-6.3661 0-12.1764-2.3795-16.5901-6.2976-3.2197-2.8581-5.6783-6.5372-7.0708-10.609 4.4 5.4332 11.1248 8.9066 18.6609 8.9066h19c7.5361 0 14.2609-3.4734 18.6609-8.9066z" fill="rgb(0,0,0)" style="fill: rgb(42, 0, 77);"></path><path d="m90 41c0-11.0457-8.9543-20-20-20h-19c-11.0457 0-20 8.9543-20 20s8.9543 20 20 20h19c11.0457 0 20-8.9543 20-20z" fill="rgb(0,0,0)" style="fill: rgb(42, 0, 77);"></path><path d="m47 110h28c1.1045 0 1.9999-.895 2-2v-16c0-1.1046-.8954-2-1.9999-2h-28.0001c-1.1046 0-2 .8954-2 2v16c0 1.105.8954 2 2 2z" fill="rgb(0,0,0)" style="fill: rgb(42, 0, 77);"></path></g></svg>